<svg width="40" height="40" viewBox="0 0 40 40" fill="none" xmlns="http://www.w3.org/2000/svg">
<g clip-path="url(#clip0_828_8590)">
<g filter="url(#filter0_d_828_8590)">
<path fill-rule="evenodd" clip-rule="evenodd" d="M0 8.91267C0 8.91267 1.54551 9.73017 2.37042 10.9345C2.45907 11.0655 2.53975 11.1984 2.60868 11.3374C2.84883 11.8155 4.10105 14.3611 5.65838 17.5318L5.67025 17.5556C8.7475 23.8175 13.01 32.5 13.01 32.5H18.9263L7.17047 8.91267H0Z" fill="#089E5F"/>
<path fill-rule="evenodd" clip-rule="evenodd" d="M36.8499 12.4851L35.9147 16.66C35.9147 16.66 40.3938 13.287 38.4085 7.5C31.3864 9.7156 32.9697 16.1226 32.6825 16.7262C32.3954 17.3297 27.498 26.1838 27.498 26.1838C27.498 26.1838 25.0164 22.4636 25.0164 19.5536C25.0164 17.0238 29.7293 8.91267 29.7293 8.91267H27.9409L23.0476 17.4578L18.7865 8.91267H11.6161C11.6161 8.91267 13.1616 9.73016 13.9865 10.9346C14.0752 11.0655 14.1559 11.1984 14.2247 11.3373C14.465 11.8155 15.7172 14.3611 17.2745 17.5318L17.2863 17.5556C20.3636 23.8175 24.6261 32.5 24.6261 32.5H30.5424C30.5424 32.5 29.3601 30.3919 29.3601 28.7797C29.3601 25.7539 36.8499 12.4851 36.8499 12.4851Z" fill="#089E5F"/>
<path fill-rule="evenodd" clip-rule="evenodd" d="M32.8548 21.6617C32.8548 21.6617 37.8999 24.1667 40 19.785C35.6358 17.0899 32.8548 21.6617 32.8548 21.6617Z" fill="#089E5F"/>
</g>
</g>
<defs>
<filter id="filter0_d_828_8590" x="-169.6" y="-162.1" width="379.2" height="364.2" filterUnits="userSpaceOnUse" color-interpolation-filters="sRGB">
<feFlood flood-opacity="0" result="BackgroundImageFix"/>
<feColorMatrix in="SourceAlpha" type="matrix" values="0 0 0 0 0 0 0 0 0 0 0 0 0 0 0 0 0 0 127 0" result="hardAlpha"/>
<feOffset/>
<feGaussianBlur stdDeviation="84.8"/>
<feComposite in2="hardAlpha" operator="out"/>
<feColorMatrix type="matrix" values="0 0 0 0 0 0 0 0 0 0 0 0 0 0 0 0 0 0 0.1 0"/>
<feBlend mode="normal" in2="BackgroundImageFix" result="effect1_dropShadow_828_8590"/>
<feBlend mode="normal" in="SourceGraphic" in2="effect1_dropShadow_828_8590" result="shape"/>
</filter>
<clipPath id="clip0_828_8590">
<rect width="40" height="40" fill="white"/>
</clipPath>
</defs>
</svg>
