<svg
                          width="20"
                          height="20"
                          viewBox="0 0 20 20"
                          fill="none"
                          xmlns="http://www.w3.org/2000/svg"
                        >
                          <path
                            d="M15.2765 17.7765H4.72315C3.34231 17.7765 2.22314 16.6573 2.22314 15.2765V4.72315C2.22314 3.34231 3.34231 2.22314 4.72315 2.22314H15.2765C16.6573 2.22314 17.7765 3.34231 17.7765 4.72315V15.2765C17.7765 16.6573 16.6573 17.7765 15.2765 17.7765Z"
                            fill="#3699FF"
                          />
                          <path
                            d="M2.22314 11.4292C3.44814 11.1117 4.73231 10.9434 6.05648 10.9434C10.6106 10.9434 14.6981 12.94 17.4915 16.105"
                            fill="#3699FF"
                          />
                          <path
                            d="M2.22314 11.4292C3.44814 11.1117 4.73231 10.9434 6.05648 10.9434C10.6106 10.9434 14.6981 12.94 17.4915 16.105"
                            stroke="white"
                            stroke-width="1.5"
                            stroke-miterlimit="10"
                            stroke-linecap="round"
                            stroke-linejoin="round"
                          />
                          <path
                            d="M12.8753 9.48016C14.1028 9.48016 15.0978 8.48511 15.0978 7.25766C15.0978 6.0302 14.1028 5.03516 12.8753 5.03516C11.6479 5.03516 10.6528 6.0302 10.6528 7.25766C10.6528 8.48511 11.6479 9.48016 12.8753 9.48016Z"
                            fill="white"
                          />
                        </svg>