<svg width="16" height="16" viewBox="0 0 16 16" fill="none" xmlns="http://www.w3.org/2000/svg">
<g clip-path="url(#clip0_649_9142)">
<path d="M5.33301 5.3335V4.00016C5.33301 2.5274 6.52692 1.3335 7.99967 1.3335L11.9997 1.3335C13.4724 1.3335 14.6663 2.5274 14.6663 4.00016V8.00016C14.6663 9.47292 13.4724 10.6668 11.9997 10.6668H10.6663M5.33301 5.3335H3.99967C2.52692 5.3335 1.33301 6.5274 1.33301 8.00016V12.0002C1.33301 13.4729 2.52692 14.6668 3.99967 14.6668H7.99967C9.47243 14.6668 10.6663 13.4729 10.6663 12.0002V10.6668M5.33301 5.3335H7.99967C9.47243 5.3335 10.6663 6.5274 10.6663 8.00016V10.6668" stroke="#3699FF" stroke-width="1.2" stroke-linejoin="round"/>
</g>
<defs>
<clipPath id="clip0_649_9142">
<rect width="16" height="16" fill="white"/>
</clipPath>
</defs>
</svg>
