<svg width="24" height="24" viewBox="0 0 24 24" fill="none" xmlns="http://www.w3.org/2000/svg">
<path d="M5.6363 6.79333L6.79333 5.6363C7.8842 4.54543 8.42963 4 9.10741 4C9.78519 4 10.3306 4.54543 11.4215 5.6363L9.49309 7.56469L5.6363 11.4215L5.63629 11.4215C4.54543 10.3306 4 9.78518 4 9.10741C4 8.42963 4.54543 7.8842 5.63629 6.79334L5.6363 6.79333Z" fill="#3699FF"/>
<path d="M18.3637 17.2067L17.2067 18.3637C16.1158 19.4546 15.5704 20 14.8926 20C14.2148 20 13.6694 19.4546 12.5785 18.3637L12.5785 18.3637L16.4353 14.5069L18.3637 12.5785C19.4546 13.6694 20 14.2148 20 14.8926C20 15.5704 19.4546 16.1158 18.3637 17.2067Z" fill="#3699FF"/>
<path d="M11.5201 16.929L11.5201 16.9289L17.4368 11.0123C16.6315 10.6771 15.6777 10.1266 14.7757 9.22454C13.8736 8.32238 13.323 7.36846 12.9879 6.56312L7.07106 12.4799L7.07103 12.4799C6.60933 12.9416 6.37846 13.1725 6.17992 13.4271C5.94571 13.7273 5.74491 14.0522 5.58107 14.396C5.44219 14.6874 5.33894 14.9972 5.13245 15.6167L4.04356 18.8833C3.94194 19.1882 4.02128 19.5243 4.2485 19.7515C4.47573 19.9787 4.81182 20.0581 5.11667 19.9564L8.38334 18.8675C9.00281 18.6611 9.31256 18.5578 9.60398 18.4189C9.94775 18.2551 10.2727 18.0543 10.5729 17.8201C10.8275 17.6215 11.0584 17.3907 11.5201 16.929Z" fill="#3699FF"/>
<path d="M19.0786 9.37044C20.3071 8.14188 20.3071 6.14999 19.0786 4.92142C17.85 3.69286 15.8581 3.69286 14.6296 4.92142L13.9199 5.63105C13.9296 5.6604 13.9397 5.69015 13.9502 5.72028C14.2103 6.47 14.701 7.4528 15.6243 8.37602C16.5475 9.29923 17.5303 9.78999 18.28 10.0501C18.31 10.0605 18.3396 10.0705 18.3688 10.0802L19.0786 9.37044Z" fill="#3699FF"/>
</svg>
