<svg width="24" height="24" viewBox="0 0 24 24" fill="none" xmlns="http://www.w3.org/2000/svg">
<path d="M10.2 12C10.2 11.0059 11.0059 10.2 12 10.2C12.9941 10.2 13.8 11.0059 13.8 12C13.8 12.9941 12.9941 13.8 12 13.8C11.0059 13.8 10.2 12.9941 10.2 12Z" fill="#3699FF"/>
<path fill-rule="evenodd" clip-rule="evenodd" d="M4 12C4 13.3115 4.33997 13.7532 5.01991 14.6365C6.37757 16.4004 8.65449 18.4 12 18.4C15.3455 18.4 17.6224 16.4004 18.9801 14.6365C19.66 13.7532 20 13.3115 20 12C20 10.6885 19.66 10.2468 18.9801 9.36347C17.6224 7.59965 15.3455 5.60001 12 5.60001C8.65449 5.60001 6.37757 7.59965 5.01991 9.36347C4.33997 10.2468 4 10.6885 4 12ZM12 9.00001C10.3431 9.00001 9 10.3432 9 12C9 13.6569 10.3431 15 12 15C13.6569 15 15 13.6569 15 12C15 10.3432 13.6569 9.00001 12 9.00001Z" fill="#3699FF"/>
</svg>