<svg xmlns="http://www.w3.org/2000/svg" width="86" height="86" viewBox="0 0 86 86" fill="none">
<mask id="path-1-inside-1_1170_103742" fill="white">
<path d="M20.5875 33.2212H62.6625C64.065 33.2212 65 32.2435 65 30.7768C65 29.3101 64.065 28.3324 62.6625 28.3324H20.5875C19.185 28.3324 18.25 29.3101 18.25 30.7768C18.25 32.2435 19.185 33.2212 20.5875 33.2212Z"/>
<path d="M27.6 40.5546C28.3013 40.5546 28.7688 40.3101 29.2363 39.8212C30.1713 38.8435 30.1713 37.3768 29.2363 36.399L23.86 30.7768L29.2363 25.1546C30.1713 24.1768 30.1713 22.7101 29.2363 21.7324C28.3013 20.7546 26.8987 20.7546 25.9637 21.7324L18.9512 29.0657C18.0162 30.0435 18.0162 31.5101 18.9512 32.4879L25.9637 39.8212C26.4312 40.3101 26.8988 40.5546 27.6 40.5546Z"/>
<path d="M55.65 64.999C56.3512 64.999 56.8187 64.7546 57.2862 64.2657L64.2987 56.9324C65.2337 55.9546 65.2337 54.4879 64.2987 53.5101L57.2862 46.1768C56.3512 45.199 54.9488 45.199 54.0138 46.1768C53.0788 47.1546 53.0788 48.6212 54.0138 49.599L59.39 55.2212L54.0138 60.8435C53.0788 61.8212 53.0788 63.2879 54.0138 64.2657C54.4813 64.7546 54.9487 64.999 55.65 64.999Z"/>
<path d="M20.5875 57.6657H62.6625C64.065 57.6657 65 56.6879 65 55.2212C65 53.7546 64.065 52.7768 62.6625 52.7768H20.5875C19.185 52.7768 18.25 53.7546 18.25 55.2212C18.25 56.6879 19.185 57.6657 20.5875 57.6657Z"/>
</mask>
<path d="M20.5875 33.2212H62.6625C64.065 33.2212 65 32.2435 65 30.7768C65 29.3101 64.065 28.3324 62.6625 28.3324H20.5875C19.185 28.3324 18.25 29.3101 18.25 30.7768C18.25 32.2435 19.185 33.2212 20.5875 33.2212Z" fill="#1F8A70"/>
<path d="M27.6 40.5546C28.3013 40.5546 28.7688 40.3101 29.2363 39.8212C30.1713 38.8435 30.1713 37.3768 29.2363 36.399L23.86 30.7768L29.2363 25.1546C30.1713 24.1768 30.1713 22.7101 29.2363 21.7324C28.3013 20.7546 26.8987 20.7546 25.9637 21.7324L18.9512 29.0657C18.0162 30.0435 18.0162 31.5101 18.9512 32.4879L25.9637 39.8212C26.4312 40.3101 26.8988 40.5546 27.6 40.5546Z" fill="#1F8A70"/>
<path d="M55.65 64.999C56.3512 64.999 56.8187 64.7546 57.2862 64.2657L64.2987 56.9324C65.2337 55.9546 65.2337 54.4879 64.2987 53.5101L57.2862 46.1768C56.3512 45.199 54.9488 45.199 54.0138 46.1768C53.0788 47.1546 53.0788 48.6212 54.0138 49.599L59.39 55.2212L54.0138 60.8435C53.0788 61.8212 53.0788 63.2879 54.0138 64.2657C54.4813 64.7546 54.9487 64.999 55.65 64.999Z" fill="#1F8A70"/>
<path d="M20.5875 57.6657H62.6625C64.065 57.6657 65 56.6879 65 55.2212C65 53.7546 64.065 52.7768 62.6625 52.7768H20.5875C19.185 52.7768 18.25 53.7546 18.25 55.2212C18.25 56.6879 19.185 57.6657 20.5875 57.6657Z" fill="#1F8A70"/>
<path d="M29.2363 36.399L71.637 -4.14669L71.637 -4.14669L29.2363 36.399ZM23.86 30.7768L-18.5407 71.3225L-57.3126 30.7768L-18.5407 -9.76892L23.86 30.7768ZM29.2363 25.1546L71.637 65.7003L71.637 65.7003L29.2363 25.1546ZM25.9637 21.7324L-16.437 -18.8134H-16.437L25.9637 21.7324ZM18.9512 29.0657L61.352 69.6114H61.352L18.9512 29.0657ZM57.2862 64.2657L14.8855 23.72L14.8855 23.72L57.2862 64.2657ZM64.2987 56.9324L106.699 97.4781L106.699 97.4781L64.2987 56.9324ZM64.2987 53.5101L106.699 12.9644L106.699 12.9644L64.2987 53.5101ZM57.2862 46.1768L14.8855 86.7225L14.8855 86.7225L57.2862 46.1768ZM54.0138 49.599L96.4145 9.05331L96.4145 9.05332L54.0138 49.599ZM59.39 55.2212L101.791 14.6755L140.563 55.2213L101.791 95.767L59.39 55.2212ZM54.0138 60.8435L11.613 20.2977L11.613 20.2977L54.0138 60.8435ZM20.5875 -25.4454H62.6625V91.8879H20.5875V-25.4454ZM62.6625 -25.4454C49.2212 -25.4454 33.8456 -20.4298 21.9565 -7.9967C10.2934 4.19997 6.33334 18.9447 6.33334 30.7768H123.667C123.667 44.0755 119.239 60.0425 106.758 73.0947C94.0506 86.3834 77.5063 91.8879 62.6625 91.8879V-25.4454ZM6.33334 30.7768C6.33334 42.6089 10.2934 57.3536 21.9564 69.5503C33.8456 81.9834 49.2212 86.999 62.6625 86.999V-30.3343C77.5063 -30.3343 94.0507 -24.8298 106.758 -11.5411C119.239 1.51109 123.667 17.4781 123.667 30.7768H6.33334ZM62.6625 86.999H20.5875V-30.3343H62.6625V86.999ZM20.5875 86.999C34.0288 86.999 49.4044 81.9834 61.2935 69.5503C72.9566 57.3536 76.9167 42.6089 76.9167 30.7768H-40.4167C-40.4167 17.4781 -35.9891 1.51107 -23.5079 -11.5411C-10.8007 -24.8298 5.74368 -30.3343 20.5875 -30.3343V86.999ZM76.9167 30.7768C76.9167 18.9447 72.9566 4.19995 61.2935 -7.99671C49.4044 -20.4298 34.0288 -25.4454 20.5875 -25.4454V91.8879C5.74369 91.8879 -10.8006 86.3834 -23.5079 73.0948C-35.9891 60.0425 -40.4167 44.0755 -40.4167 30.7768H76.9167ZM27.6 -18.1121C20.7585 -18.1121 12.3993 -16.8365 3.77901 -12.8299C-4.50608 -8.97919 -10.0519 -3.97951 -13.1645 -0.72447L71.637 80.367C68.0569 84.1109 62.0436 89.4772 53.2325 93.5724C44.0863 97.8234 35.1428 99.2212 27.6 99.2212V-18.1121ZM-13.1645 -0.72447C-33.9174 20.9779 -33.9174 55.2424 -13.1645 76.9447L71.637 -4.14669C94.2599 19.5112 94.2599 56.709 71.637 80.367L-13.1645 -0.72447ZM-13.1645 76.9447L-18.5407 71.3225L66.2607 -9.76892L71.637 -4.14669L-13.1645 76.9447ZM-18.5407 -9.76892L-13.1645 -15.3911L71.637 65.7003L66.2607 71.3225L-18.5407 -9.76892ZM-13.1645 -15.3911C-33.9174 6.31124 -33.9174 40.5757 -13.1645 62.2781L71.637 -18.8134C94.2599 4.84458 94.2599 42.0424 71.637 65.7003L-13.1645 -15.3911ZM-13.1645 62.2781C-3.21259 72.6853 11.2552 79.6657 27.6 79.6657C43.9448 79.6657 58.4126 72.6853 68.3645 62.2781L-16.437 -18.8134C7.60223 -43.9524 47.5978 -43.9524 71.637 -18.8134L-13.1645 62.2781ZM68.3645 62.2781L61.352 69.6114L-23.4495 -11.48L-16.437 -18.8134L68.3645 62.2781ZM61.352 69.6114C82.1049 47.909 82.1049 13.6446 61.352 -8.0578L-23.4495 73.0336C-46.0724 49.3757 -46.0724 12.1779 -23.4495 -11.48L61.352 69.6114ZM61.352 -8.0578L68.3645 -0.72447L-16.437 80.367L-23.4495 73.0336L61.352 -8.0578ZM68.3645 -0.72447C65.2519 -3.97951 59.7061 -8.97919 51.421 -12.8299C42.8007 -16.8365 34.4415 -18.1121 27.6 -18.1121V99.2212C20.0572 99.2212 11.1137 97.8234 1.96745 93.5724C-6.84358 89.4772 -12.8569 84.1109 -16.437 80.367L68.3645 -0.72447ZM55.65 6.33236C48.8085 6.33236 40.4494 7.60797 31.829 11.6145C23.5439 15.4653 17.9981 20.465 14.8855 23.72L99.687 104.811C96.1069 108.555 90.0936 113.922 81.2825 118.017C72.1363 122.268 63.1927 123.666 55.65 123.666V6.33236ZM14.8855 23.72L21.898 16.3866L106.699 97.4781L99.687 104.811L14.8855 23.72ZM21.898 16.3866C1.14511 38.089 1.14511 72.3535 21.898 94.0558L106.699 12.9644C129.322 36.6223 129.322 73.8201 106.699 97.4781L21.898 16.3866ZM21.898 94.0558L14.8855 86.7225L99.687 5.63108L106.699 12.9644L21.898 94.0558ZM14.8855 86.7225C24.8374 97.1297 39.3051 104.11 55.65 104.11C71.9949 104.11 86.4626 97.1297 96.4145 86.7225L11.613 5.63109C35.6522 -19.508 75.6478 -19.508 99.687 5.63109L14.8855 86.7225ZM96.4145 86.7225C117.167 65.0201 117.167 30.7557 96.4145 9.05331L11.613 90.1447C-11.0099 66.4868 -11.0099 29.289 11.613 5.63109L96.4145 86.7225ZM96.4145 9.05332L101.791 14.6755L16.9893 95.7669L11.613 90.1447L96.4145 9.05332ZM101.791 95.767L96.4145 101.389L11.613 20.2977L16.9893 14.6755L101.791 95.767ZM96.4145 101.389C117.167 79.6868 117.167 45.4223 96.4145 23.72L11.613 104.811C-11.0099 81.1535 -11.0099 43.9557 11.613 20.2977L96.4145 101.389ZM96.4145 23.72C93.3019 20.465 87.7561 15.4653 79.471 11.6145C70.8506 7.60797 62.4915 6.33236 55.65 6.33236V123.666C48.1073 123.666 39.1637 122.268 30.0175 118.017C21.2064 113.922 15.1931 108.555 11.613 104.811L96.4145 23.72ZM20.5875 -1.00098H62.6625V116.332H20.5875V-1.00098ZM62.6625 -1.00098C49.2212 -1.00098 33.8456 4.01468 21.9564 16.4478C10.2934 28.6444 6.33334 43.3892 6.33334 55.2212H123.667C123.667 68.52 119.239 84.4869 106.758 97.5392C94.0507 110.828 77.5063 116.332 62.6625 116.332V-1.00098ZM6.33334 55.2212C6.33334 67.0533 10.2934 81.7981 21.9564 93.9947C33.8456 106.428 49.2212 111.443 62.6625 111.443V-5.88987C77.5063 -5.88987 94.0507 -0.385324 106.758 12.9033C119.239 25.9555 123.667 41.9225 123.667 55.2212H6.33334ZM62.6625 111.443H20.5875V-5.88987H62.6625V111.443ZM20.5875 111.443C34.0288 111.443 49.4044 106.428 61.2936 93.9947C72.9566 81.7981 76.9167 67.0533 76.9167 55.2212H-40.4167C-40.4167 41.9225 -35.9891 25.9555 -23.5079 12.9033C-10.8007 -0.385326 5.74366 -5.88987 20.5875 -5.88987V111.443ZM76.9167 55.2212C76.9167 43.3892 72.9566 28.6444 61.2936 16.4478C49.4044 4.01467 34.0288 -1.00098 20.5875 -1.00098V116.332C5.74366 116.332 -10.8007 110.828 -23.5079 97.5392C-35.9891 84.487 -40.4167 68.52 -40.4167 55.2212H76.9167Z" fill="#1F8A70" mask="url(#path-1-inside-1_1170_103742)"/>
<circle cx="66.992" cy="28.1443" r="17.4414" fill="#C5FFF1" stroke="white" stroke-width="2.37838"/>
<path d="M75.068 24.0723L74.2603 23.2464C73.9276 22.9062 73.3844 22.9062 73.0488 23.2464L64.58 31.9098L60.1437 27.3731C59.811 27.0328 59.2678 27.0328 58.9322 27.3731L58.1245 28.199C57.7918 28.5393 57.7918 29.0947 58.1245 29.4379L63.9714 35.4171C64.1392 35.5887 64.3553 35.6759 64.5743 35.6759C64.7933 35.6759 65.0123 35.5887 65.1772 35.4171L75.0594 25.3112C75.4007 24.9652 75.4007 24.4126 75.068 24.0723Z" fill="#1F8A70"/>
</svg>